

  function spaceLord() {
    return {
      "header": {
        "PPQ": 480,
        "timeSignature": [
          4,
          4
        ],
        "bpm": 80,
        "name": ""
      },
      "startTime": 14.4375,
      "duration": 404.9984375,
      "tracks": [
        {
          "startTime": 14.4375,
          "duration": 404.9984375,
          "length": 508,
          "notes": [
            {
              "name": "E4",
              "midi": 64,
              "time": 14.4375,
              "velocity": 0.3937007874015748,
              "duration": 0.18593749999999964
            },
            {
              "name": "A4",
              "midi": 69,
              "time": 14.625,
              "velocity": 0.3937007874015748,
              "duration": 0.18593749999999964
            },
            {
              "name": "B4",
              "midi": 71,
              "time": 15,
              "velocity": 0.3937007874015748,
              "duration": 0.37343749999999964
            },
            {
              "name": "A4",
              "midi": 69,
              "time": 15.375,
              "velocity": 0.3937007874015748,
              "duration": 0.37343749999999964
            },
            {
              "name": "G4",
              "midi": 67,
              "time": 15.75,
              "velocity": 0.3937007874015748,
              "duration": 0.3734375000000014
            },
            {
              "name": "B4",
              "midi": 71,
              "time": 16.125,
              "velocity": 0.3937007874015748,
              "duration": 0.18593750000000142
            },
            {
              "name": "E4",
              "midi": 64,
              "time": 16.3125,
              "velocity": 0.3937007874015748,
              "duration": 0.3734375000000014
            },
            {
              "name": "E4",
              "midi": 64,
              "time": 17.25,
              "velocity": 0.3937007874015748,
              "duration": 0.3734375000000014
            },
            {
              "name": "E4",
              "midi": 64,
              "time": 17.625,
              "velocity": 0.3937007874015748,
              "duration": 0.3734375000000014
            },
            {
              "name": "G4",
              "midi": 67,
              "time": 18,
              "velocity": 0.3937007874015748,
              "duration": 0.3734375000000014
            },
            {
              "name": "E4",
              "midi": 64,
              "time": 18.375,
              "velocity": 0.3937007874015748,
              "duration": 0.3734375000000014
            },
            {
              "name": "D4",
              "midi": 62,
              "time": 18.75,
              "velocity": 0.3937007874015748,
              "duration": 0.3734375000000014
            },
            {
              "name": "E4",
              "midi": 64,
              "time": 19.125,
              "velocity": 0.3937007874015748,
              "duration": 0.18593750000000142
            },
            {
              "name": "G4",
              "midi": 67,
              "time": 19.3125,
              "velocity": 0.3937007874015748,
              "duration": 0.3734375000000014
            },
            {
              "name": "E4",
              "midi": 64,
              "time": 20.4375,
              "velocity": 0.3937007874015748,
              "duration": 0.18593750000000142
            },
            {
              "name": "A4",
              "midi": 69,
              "time": 20.625,
              "velocity": 0.3937007874015748,
              "duration": 0.18593750000000142
            },
            {
              "name": "B4",
              "midi": 71,
              "time": 21,
              "velocity": 0.3937007874015748,
              "duration": 0.3734375000000014
            },
            {
              "name": "A4",
              "midi": 69,
              "time": 21.375,
              "velocity": 0.3937007874015748,
              "duration": 0.3734375000000014
            },
            {
              "name": "G4",
              "midi": 67,
              "time": 21.75,
              "velocity": 0.3937007874015748,
              "duration": 0.3734375000000014
            },
            {
              "name": "B4",
              "midi": 71,
              "time": 22.125,
              "velocity": 0.3937007874015748,
              "duration": 0.7484375000000014
            },
            {
              "name": "D4",
              "midi": 62,
              "time": 22.875,
              "velocity": 0.3937007874015748,
              "duration": 0.3734375000000014
            },
            {
              "name": "E4",
              "midi": 64,
              "time": 23.25,
              "velocity": 0.3937007874015748,
              "duration": 0.3734375000000014
            },
            {
              "name": "D4",
              "midi": 62,
              "time": 23.625,
              "velocity": 0.3937007874015748,
              "duration": 0.3734375000000014
            },
            {
              "name": "G4",
              "midi": 67,
              "time": 24,
              "velocity": 0.3937007874015748,
              "duration": 0.18593750000000142
            },
            {
              "name": "E4",
              "midi": 64,
              "time": 24.1875,
              "velocity": 0.3937007874015748,
              "duration": 0.18593750000000142
            },
            {
              "name": "E4",
              "midi": 64,
              "time": 24.375,
              "velocity": 0.3937007874015748,
              "duration": 0.3734375000000014
            },
            {
              "name": "E4",
              "midi": 64,
              "time": 24.75,
              "velocity": 0.3937007874015748,
              "duration": 0.3734375000000014
            },
            {
              "name": "D4",
              "midi": 62,
              "time": 25.125,
              "velocity": 0.3937007874015748,
              "duration": 0.7484375000000014
            },
            {
              "name": "A4",
              "midi": 69,
              "time": 26.625,
              "velocity": 0.3937007874015748,
              "duration": 0.3734375000000014
            },
            {
              "name": "B4",
              "midi": 71,
              "time": 27,
              "velocity": 0.3937007874015748,
              "duration": 0.3734375000000014
            },
            {
              "name": "B4",
              "midi": 71,
              "time": 27.375,
              "velocity": 0.3937007874015748,
              "duration": 0.3734375000000014
            },
            {
              "name": "B4",
              "midi": 71,
              "time": 27.75,
              "velocity": 0.3937007874015748,
              "duration": 0.3734375000000014
            },
            {
              "name": "B4",
              "midi": 71,
              "time": 28.125,
              "velocity": 0.3937007874015748,
              "duration": 0.7484375000000014
            },
            {
              "name": "D4",
              "midi": 62,
              "time": 28.875,
              "velocity": 0.3937007874015748,
              "duration": 0.3734375000000014
            },
            {
              "name": "E4",
              "midi": 64,
              "time": 29.25,
              "velocity": 0.3937007874015748,
              "duration": 0.3734375000000014
            },
            {
              "name": "E4",
              "midi": 64,
              "time": 29.625,
              "velocity": 0.3937007874015748,
              "duration": 0.3734375000000014
            },
            {
              "name": "G4",
              "midi": 67,
              "time": 30,
              "velocity": 0.3937007874015748,
              "duration": 0.3734375000000014
            },
            {
              "name": "E4",
              "midi": 64,
              "time": 30.375,
              "velocity": 0.3937007874015748,
              "duration": 0.3734375000000014
            },
            {
              "name": "D4",
              "midi": 62,
              "time": 30.75,
              "velocity": 0.3937007874015748,
              "duration": 0.3734375000000014
            },
            {
              "name": "E4",
              "midi": 64,
              "time": 31.125,
              "velocity": 0.3937007874015748,
              "duration": 0.18593750000000142
            },
            {
              "name": "G4",
              "midi": 67,
              "time": 31.3125,
              "velocity": 0.3937007874015748,
              "duration": 0.3734375000000014
            },
            {
              "name": "E4",
              "midi": 64,
              "time": 32.625,
              "velocity": 0.3937007874015748,
              "duration": 0.3734375000000014
            },
            {
              "name": "A#4",
              "midi": 70,
              "time": 33,
              "velocity": 0.3937007874015748,
              "duration": 0.18593750000000142
            },
            {
              "name": "A4",
              "midi": 69,
              "time": 33.1875,
              "velocity": 0.3937007874015748,
              "duration": 0.2796875000000014
            },
            {
              "name": "G4",
              "midi": 67,
              "time": 33.75,
              "velocity": 0.3937007874015748,
              "duration": 0.3734375000000014
            },
            {
              "name": "B4",
              "midi": 71,
              "time": 34.125,
              "velocity": 0.3937007874015748,
              "duration": 0.3734375000000014
            },
            {
              "name": "D4",
              "midi": 62,
              "time": 34.5,
              "velocity": 0.3937007874015748,
              "duration": 0.3734375000000014
            },
            {
              "name": "E4",
              "midi": 64,
              "time": 34.875,
              "velocity": 0.3937007874015748,
              "duration": 0.3734375000000014
            },
            {
              "name": "E4",
              "midi": 64,
              "time": 35.625,
              "velocity": 0.3937007874015748,
              "duration": 0.3734375000000014
            },
            {
              "name": "G4",
              "midi": 67,
              "time": 36,
              "velocity": 0.3937007874015748,
              "duration": 0.3734375000000014
            },
            {
              "name": "D4",
              "midi": 62,
              "time": 36.375,
              "velocity": 0.3937007874015748,
              "duration": 0.18593750000000142
            },
            {
              "name": "E4",
              "midi": 64,
              "time": 36.5625,
              "velocity": 0.3937007874015748,
              "duration": 0.3734375000000014
            },
            {
              "name": "D4",
              "midi": 62,
              "time": 37.125,
              "velocity": 0.3937007874015748,
              "duration": 0.5609375000000014
            },
            {
              "name": "E4",
              "midi": 64,
              "time": 37.875,
              "velocity": 0.3937007874015748,
              "duration": 0.5609375000000014
            },
            {
              "name": "G4",
              "midi": 67,
              "time": 38.25,
              "velocity": 0.3937007874015748,
              "duration": 0.7484375000000014
            },
            {
              "name": "A4",
              "midi": 69,
              "time": 39,
              "velocity": 0.3937007874015748,
              "duration": 8.248437500000001
            },
            {
              "name": "A4",
              "midi": 69,
              "time": 48,
              "velocity": 0.3937007874015748,
              "duration": 0.7484375000000014
            },
            {
              "name": "A4",
              "midi": 69,
              "time": 48.75,
              "velocity": 0.3937007874015748,
              "duration": 0.7484375000000014
            },
            {
              "name": "A4",
              "midi": 69,
              "time": 49.5,
              "velocity": 0.3937007874015748,
              "duration": 0.3734375000000014
            },
            {
              "name": "B4",
              "midi": 71,
              "time": 49.875,
              "velocity": 0.3937007874015748,
              "duration": 0.3734375000000014
            },
            {
              "name": "A4",
              "midi": 69,
              "time": 50.25,
              "velocity": 0.3937007874015748,
              "duration": 0.3734375000000014
            },
            {
              "name": "B4",
              "midi": 71,
              "time": 50.625,
              "velocity": 0.3937007874015748,
              "duration": 0.3734375000000014
            },
            {
              "name": "G5",
              "midi": 79,
              "time": 53.25,
              "velocity": 0.3937007874015748,
              "duration": 0.7484375000000014
            },
            {
              "name": "C#5",
              "midi": 73,
              "time": 55.875,
              "velocity": 0.3937007874015748,
              "duration": 0.3734375000000014
            },
            {
              "name": "B4",
              "midi": 71,
              "time": 56.25,
              "velocity": 0.3937007874015748,
              "duration": 0.18593750000000142
            },
            {
              "name": "A4",
              "midi": 69,
              "time": 56.4375,
              "velocity": 0.3937007874015748,
              "duration": 0.5609375000000014
            },
            {
              "name": "A4",
              "midi": 69,
              "time": 59.25,
              "velocity": 0.3937007874015748,
              "duration": 0.7484375000000014
            },
            {
              "name": "E4",
              "midi": 64,
              "time": 62.625,
              "velocity": 0.3937007874015748,
              "duration": 0.18593750000000142
            },
            {
              "name": "G4",
              "midi": 67,
              "time": 62.8125,
              "velocity": 0.3937007874015748,
              "duration": 0.18593750000000142
            },
            {
              "name": "B4",
              "midi": 71,
              "time": 63,
              "velocity": 0.3937007874015748,
              "duration": 0.3734375000000014
            },
            {
              "name": "A4",
              "midi": 69,
              "time": 63.375,
              "velocity": 0.3937007874015748,
              "duration": 0.3734375000000014
            },
            {
              "name": "G4",
              "midi": 67,
              "time": 63.75,
              "velocity": 0.3937007874015748,
              "duration": 0.3734374999999943
            },
            {
              "name": "B4",
              "midi": 71,
              "time": 64.125,
              "velocity": 0.3937007874015748,
              "duration": 0.7484374999999943
            },
            {
              "name": "E4",
              "midi": 64,
              "time": 64.875,
              "velocity": 0.3937007874015748,
              "duration": 0.3734374999999943
            },
            {
              "name": "E4",
              "midi": 64,
              "time": 65.25,
              "velocity": 0.3937007874015748,
              "duration": 0.3734374999999943
            },
            {
              "name": "E4",
              "midi": 64,
              "time": 65.625,
              "velocity": 0.3937007874015748,
              "duration": 0.3734374999999943
            },
            {
              "name": "G4",
              "midi": 67,
              "time": 66,
              "velocity": 0.3937007874015748,
              "duration": 0.3734374999999943
            },
            {
              "name": "E4",
              "midi": 64,
              "time": 66.375,
              "velocity": 0.3937007874015748,
              "duration": 0.3734374999999943
            },
            {
              "name": "D4",
              "midi": 62,
              "time": 66.75,
              "velocity": 0.3937007874015748,
              "duration": 0.3734374999999943
            },
            {
              "name": "E4",
              "midi": 64,
              "time": 67.125,
              "velocity": 0.3937007874015748,
              "duration": 0.18593749999999432
            },
            {
              "name": "G4",
              "midi": 67,
              "time": 67.3125,
              "velocity": 0.3937007874015748,
              "duration": 0.3734374999999943
            },
            {
              "name": "A4",
              "midi": 69,
              "time": 68.625,
              "velocity": 0.3937007874015748,
              "duration": 0.3734374999999943
            },
            {
              "name": "B4",
              "midi": 71,
              "time": 69,
              "velocity": 0.3937007874015748,
              "duration": 0.3734374999999943
            },
            {
              "name": "A4",
              "midi": 69,
              "time": 69.375,
              "velocity": 0.3937007874015748,
              "duration": 0.3734374999999943
            },
            {
              "name": "G4",
              "midi": 67,
              "time": 69.75,
              "velocity": 0.3937007874015748,
              "duration": 0.3734374999999943
            },
            {
              "name": "B4",
              "midi": 71,
              "time": 70.125,
              "velocity": 0.3937007874015748,
              "duration": 0.7484374999999943
            },
            {
              "name": "D4",
              "midi": 62,
              "time": 70.875,
              "velocity": 0.3937007874015748,
              "duration": 0.3734374999999943
            },
            {
              "name": "E4",
              "midi": 64,
              "time": 71.25,
              "velocity": 0.3937007874015748,
              "duration": 0.3734374999999943
            },
            {
              "name": "D4",
              "midi": 62,
              "time": 71.625,
              "velocity": 0.3937007874015748,
              "duration": 0.3734374999999943
            },
            {
              "name": "G4",
              "midi": 67,
              "time": 72,
              "velocity": 0.3937007874015748,
              "duration": 0.18593749999999432
            },
            {
              "name": "D4",
              "midi": 62,
              "time": 72.1875,
              "velocity": 0.3937007874015748,
              "duration": 0.18593749999999432
            },
            {
              "name": "E4",
              "midi": 64,
              "time": 72.375,
              "velocity": 0.3937007874015748,
              "duration": 0.3734374999999943
            },
            {
              "name": "E4",
              "midi": 64,
              "time": 72.75,
              "velocity": 0.3937007874015748,
              "duration": 0.3734374999999943
            },
            {
              "name": "D4",
              "midi": 62,
              "time": 73.125,
              "velocity": 0.3937007874015748,
              "duration": 0.7484374999999943
            },
            {
              "name": "B4",
              "midi": 71,
              "time": 74.4375,
              "velocity": 0.3937007874015748,
              "duration": 0.18593749999999432
            },
            {
              "name": "B4",
              "midi": 71,
              "time": 74.625,
              "velocity": 0.3937007874015748,
              "duration": 0.18593749999999432
            },
            {
              "name": "B4",
              "midi": 71,
              "time": 75,
              "velocity": 0.3937007874015748,
              "duration": 0.3734374999999943
            },
            {
              "name": "B4",
              "midi": 71,
              "time": 75.375,
              "velocity": 0.3937007874015748,
              "duration": 0.3734374999999943
            },
            {
              "name": "B4",
              "midi": 71,
              "time": 75.75,
              "velocity": 0.3937007874015748,
              "duration": 0.3734374999999943
            },
            {
              "name": "B4",
              "midi": 71,
              "time": 76.125,
              "velocity": 0.3937007874015748,
              "duration": 0.7484374999999943
            },
            {
              "name": "B4",
              "midi": 71,
              "time": 76.875,
              "velocity": 0.3937007874015748,
              "duration": 0.3734374999999943
            },
            {
              "name": "B4",
              "midi": 71,
              "time": 77.25,
              "velocity": 0.3937007874015748,
              "duration": 0.3734374999999943
            },
            {
              "name": "B4",
              "midi": 71,
              "time": 77.625,
              "velocity": 0.3937007874015748,
              "duration": 0.3734374999999943
            },
            {
              "name": "D5",
              "midi": 74,
              "time": 78,
              "velocity": 0.3937007874015748,
              "duration": 0.3734374999999943
            },
            {
              "name": "D5",
              "midi": 74,
              "time": 78.375,
              "velocity": 0.3937007874015748,
              "duration": 0.3734374999999943
            },
            {
              "name": "E5",
              "midi": 76,
              "time": 78.75,
              "velocity": 0.3937007874015748,
              "duration": 0.3734374999999943
            },
            {
              "name": "A#4",
              "midi": 70,
              "time": 79.125,
              "velocity": 0.3937007874015748,
              "duration": 0.18593749999999432
            },
            {
              "name": "A4",
              "midi": 69,
              "time": 79.3125,
              "velocity": 0.3937007874015748,
              "duration": 0.3734374999999943
            },
            {
              "name": "E4",
              "midi": 64,
              "time": 80.4375,
              "velocity": 0.3937007874015748,
              "duration": 0.18593749999999432
            },
            {
              "name": "G4",
              "midi": 67,
              "time": 80.625,
              "velocity": 0.3937007874015748,
              "duration": 0.18593749999999432
            },
            {
              "name": "B4",
              "midi": 71,
              "time": 81,
              "velocity": 0.3937007874015748,
              "duration": 0.3734374999999943
            },
            {
              "name": "A4",
              "midi": 69,
              "time": 81.375,
              "velocity": 0.3937007874015748,
              "duration": 0.3734374999999943
            },
            {
              "name": "G4",
              "midi": 67,
              "time": 81.75,
              "velocity": 0.3937007874015748,
              "duration": 0.3734374999999943
            },
            {
              "name": "B4",
              "midi": 71,
              "time": 82.125,
              "velocity": 0.3937007874015748,
              "duration": 0.7484374999999943
            },
            {
              "name": "E4",
              "midi": 64,
              "time": 82.875,
              "velocity": 0.3937007874015748,
              "duration": 0.3734374999999943
            },
            {
              "name": "E4",
              "midi": 64,
              "time": 83.4375,
              "velocity": 0.3937007874015748,
              "duration": 0.18593749999999432
            },
            {
              "name": "E4",
              "midi": 64,
              "time": 83.625,
              "velocity": 0.3937007874015748,
              "duration": 0.18593749999999432
            },
            {
              "name": "G4",
              "midi": 67,
              "time": 84,
              "velocity": 0.3937007874015748,
              "duration": 0.3734374999999943
            },
            {
              "name": "D4",
              "midi": 62,
              "time": 84.375,
              "velocity": 0.3937007874015748,
              "duration": 0.18593749999999432
            },
            {
              "name": "E4",
              "midi": 64,
              "time": 84.5625,
              "velocity": 0.3937007874015748,
              "duration": 0.3734374999999943
            },
            {
              "name": "E4",
              "midi": 64,
              "time": 85.125,
              "velocity": 0.3937007874015748,
              "duration": 0.3734374999999943
            },
            {
              "name": "E4",
              "midi": 64,
              "time": 85.875,
              "velocity": 0.3937007874015748,
              "duration": 0.3734374999999943
            },
            {
              "name": "G4",
              "midi": 67,
              "time": 86.25,
              "velocity": 0.3937007874015748,
              "duration": 0.3734374999999943
            },
            {
              "name": "A4",
              "midi": 69,
              "time": 87,
              "velocity": 0.3937007874015748,
              "duration": 8.248437499999994
            },
            {
              "name": "A4",
              "midi": 69,
              "time": 96,
              "velocity": 0.3937007874015748,
              "duration": 0.7484374999999943
            },
            {
              "name": "A4",
              "midi": 69,
              "time": 96.75,
              "velocity": 0.3937007874015748,
              "duration": 0.5609374999999943
            },
            {
              "name": "A#4",
              "midi": 70,
              "time": 97.3125,
              "velocity": 0.3937007874015748,
              "duration": 0.18593749999999432
            },
            {
              "name": "A4",
              "midi": 69,
              "time": 97.5,
              "velocity": 0.3937007874015748,
              "duration": 0.3734374999999943
            },
            {
              "name": "A4",
              "midi": 69,
              "time": 97.875,
              "velocity": 0.3937007874015748,
              "duration": 0.3734374999999943
            },
            {
              "name": "A4",
              "midi": 69,
              "time": 98.25,
              "velocity": 0.3937007874015748,
              "duration": 0.3734374999999943
            },
            {
              "name": "A4",
              "midi": 69,
              "time": 98.625,
              "velocity": 0.3937007874015748,
              "duration": 0.3734374999999943
            },
            {
              "name": "G5",
              "midi": 79,
              "time": 101.25,
              "velocity": 0.3937007874015748,
              "duration": 0.7484374999999943
            },
            {
              "name": "B4",
              "midi": 71,
              "time": 104.25,
              "velocity": 0.3937007874015748,
              "duration": 0.7484374999999943
            },
            {
              "name": "E4",
              "midi": 64,
              "time": 105,
              "velocity": 0.3937007874015748,
              "duration": 1.4984374999999943
            },
            {
              "name": "B5",
              "midi": 83,
              "time": 111,
              "velocity": 0.3937007874015748,
              "duration": 0.3734374999999943
            },
            {
              "name": "B5",
              "midi": 83,
              "time": 111.375,
              "velocity": 0.3937007874015748,
              "duration": 0.3734374999999943
            },
            {
              "name": "B5",
              "midi": 83,
              "time": 111.75,
              "velocity": 0.3937007874015748,
              "duration": 0.3734374999999943
            },
            {
              "name": "B5",
              "midi": 83,
              "time": 112.125,
              "velocity": 0.3937007874015748,
              "duration": 0.7484374999999943
            },
            {
              "name": "G5",
              "midi": 79,
              "time": 112.875,
              "velocity": 0.3937007874015748,
              "duration": 0.3734374999999943
            },
            {
              "name": "A5",
              "midi": 81,
              "time": 113.25,
              "velocity": 0.3937007874015748,
              "duration": 0.3734374999999943
            },
            {
              "name": "G5",
              "midi": 79,
              "time": 113.625,
              "velocity": 0.3937007874015748,
              "duration": 0.3734374999999943
            },
            {
              "name": "A5",
              "midi": 81,
              "time": 114,
              "velocity": 0.3937007874015748,
              "duration": 0.3734374999999943
            },
            {
              "name": "G5",
              "midi": 79,
              "time": 114.375,
              "velocity": 0.3937007874015748,
              "duration": 0.3734374999999943
            },
            {
              "name": "A5",
              "midi": 81,
              "time": 114.75,
              "velocity": 0.3937007874015748,
              "duration": 0.3734374999999943
            },
            {
              "name": "G5",
              "midi": 79,
              "time": 115.125,
              "velocity": 0.3937007874015748,
              "duration": 0.7484374999999943
            },
            {
              "name": "B5",
              "midi": 83,
              "time": 116.4375,
              "velocity": 0.3937007874015748,
              "duration": 0.5609374999999943
            },
            {
              "name": "B5",
              "midi": 83,
              "time": 117,
              "velocity": 0.3937007874015748,
              "duration": 0.3734374999999943
            },
            {
              "name": "B5",
              "midi": 83,
              "time": 117.375,
              "velocity": 0.3937007874015748,
              "duration": 0.3734374999999943
            },
            {
              "name": "D6",
              "midi": 86,
              "time": 117.75,
              "velocity": 0.3937007874015748,
              "duration": 0.3734374999999943
            },
            {
              "name": "B5",
              "midi": 83,
              "time": 118.125,
              "velocity": 0.3937007874015748,
              "duration": 0.7484374999999943
            },
            {
              "name": "G5",
              "midi": 79,
              "time": 118.875,
              "velocity": 0.3937007874015748,
              "duration": 0.3734374999999943
            },
            {
              "name": "A5",
              "midi": 81,
              "time": 119.25,
              "velocity": 0.3937007874015748,
              "duration": 0.3734374999999943
            },
            {
              "name": "G5",
              "midi": 79,
              "time": 119.625,
              "velocity": 0.3937007874015748,
              "duration": 0.3734374999999943
            },
            {
              "name": "A5",
              "midi": 81,
              "time": 120,
              "velocity": 0.3937007874015748,
              "duration": 0.3734374999999943
            },
            {
              "name": "G5",
              "midi": 79,
              "time": 120.375,
              "velocity": 0.3937007874015748,
              "duration": 0.3734374999999943
            },
            {
              "name": "A5",
              "midi": 81,
              "time": 120.75,
              "velocity": 0.3937007874015748,
              "duration": 0.3734374999999943
            },
            {
              "name": "G5",
              "midi": 79,
              "time": 121.125,
              "velocity": 0.3937007874015748,
              "duration": 0.7484374999999943
            },
            {
              "name": "E5",
              "midi": 76,
              "time": 122.625,
              "velocity": 0.3937007874015748,
              "duration": 0.3734374999999943
            },
            {
              "name": "B5",
              "midi": 83,
              "time": 123,
              "velocity": 0.3937007874015748,
              "duration": 0.3734374999999943
            },
            {
              "name": "B5",
              "midi": 83,
              "time": 123.375,
              "velocity": 0.3937007874015748,
              "duration": 0.3734374999999943
            },
            {
              "name": "B5",
              "midi": 83,
              "time": 123.75,
              "velocity": 0.3937007874015748,
              "duration": 0.3734374999999943
            },
            {
              "name": "B5",
              "midi": 83,
              "time": 124.125,
              "velocity": 0.3937007874015748,
              "duration": 0.7484374999999943
            },
            {
              "name": "G5",
              "midi": 79,
              "time": 124.875,
              "velocity": 0.3937007874015748,
              "duration": 0.3734374999999943
            },
            {
              "name": "A5",
              "midi": 81,
              "time": 125.25,
              "velocity": 0.3937007874015748,
              "duration": 0.3734374999999943
            },
            {
              "name": "G5",
              "midi": 79,
              "time": 125.625,
              "velocity": 0.3937007874015748,
              "duration": 0.3734374999999943
            },
            {
              "name": "B5",
              "midi": 83,
              "time": 126,
              "velocity": 0.3937007874015748,
              "duration": 0.3734374999999943
            },
            {
              "name": "A5",
              "midi": 81,
              "time": 126.375,
              "velocity": 0.3937007874015748,
              "duration": 0.3734374999999943
            },
            {
              "name": "G5",
              "midi": 79,
              "time": 126.75,
              "velocity": 0.3937007874015748,
              "duration": 0.3734374999999943
            },
            {
              "name": "B5",
              "midi": 83,
              "time": 127.125,
              "velocity": 0.3937007874015748,
              "duration": 0.7484374999999943
            },
            {
              "name": "E5",
              "midi": 76,
              "time": 127.875,
              "velocity": 0.3937007874015748,
              "duration": 0.3734374999999943
            },
            {
              "name": "E5",
              "midi": 76,
              "time": 128.625,
              "velocity": 0.3937007874015748,
              "duration": 0.3734374999999943
            },
            {
              "name": "B5",
              "midi": 83,
              "time": 129,
              "velocity": 0.3937007874015748,
              "duration": 0.3734374999999943
            },
            {
              "name": "B5",
              "midi": 83,
              "time": 129.375,
              "velocity": 0.3937007874015748,
              "duration": 0.3734374999999943
            },
            {
              "name": "B5",
              "midi": 83,
              "time": 129.75,
              "velocity": 0.3937007874015748,
              "duration": 0.3734374999999943
            },
            {
              "name": "B5",
              "midi": 83,
              "time": 130.125,
              "velocity": 0.3937007874015748,
              "duration": 0.3734374999999943
            },
            {
              "name": "A5",
              "midi": 81,
              "time": 130.5,
              "velocity": 0.3937007874015748,
              "duration": 0.3734374999999943
            },
            {
              "name": "G5",
              "midi": 79,
              "time": 130.875,
              "velocity": 0.3937007874015748,
              "duration": 0.3734374999999943
            },
            {
              "name": "A5",
              "midi": 81,
              "time": 131.25,
              "velocity": 0.3937007874015748,
              "duration": 0.3734374999999943
            },
            {
              "name": "G5",
              "midi": 79,
              "time": 131.625,
              "velocity": 0.3937007874015748,
              "duration": 0.3734374999999943
            },
            {
              "name": "A5",
              "midi": 81,
              "time": 132,
              "velocity": 0.3937007874015748,
              "duration": 0.3734374999999943
            },
            {
              "name": "G5",
              "midi": 79,
              "time": 132.375,
              "velocity": 0.3937007874015748,
              "duration": 0.18593749999999432
            },
            {
              "name": "A5",
              "midi": 81,
              "time": 132.5625,
              "velocity": 0.3937007874015748,
              "duration": 0.3734374999999943
            },
            {
              "name": "G5",
              "midi": 79,
              "time": 133.125,
              "velocity": 0.3937007874015748,
              "duration": 0.3734374999999943
            },
            {
              "name": "B5",
              "midi": 83,
              "time": 133.875,
              "velocity": 0.3937007874015748,
              "duration": 0.18593749999999432
            },
            {
              "name": "A5",
              "midi": 81,
              "time": 134.0625,
              "velocity": 0.3937007874015748,
              "duration": 0.3734374999999943
            },
            {
              "name": "G5",
              "midi": 79,
              "time": 134.4375,
              "velocity": 0.3937007874015748,
              "duration": 0.18593749999999432
            },
            {
              "name": "A5",
              "midi": 81,
              "time": 134.625,
              "velocity": 0.3937007874015748,
              "duration": 0.3734374999999943
            },
            {
              "name": "B4",
              "midi": 71,
              "time": 147,
              "velocity": 0.3937007874015748,
              "duration": 0.3734374999999943
            },
            {
              "name": "A4",
              "midi": 69,
              "time": 147.375,
              "velocity": 0.3937007874015748,
              "duration": 0.3734374999999943
            },
            {
              "name": "G4",
              "midi": 67,
              "time": 147.75,
              "velocity": 0.3937007874015748,
              "duration": 0.3734374999999943
            },
            {
              "name": "B4",
              "midi": 71,
              "time": 148.125,
              "velocity": 0.3937007874015748,
              "duration": 0.7484374999999943
            },
            {
              "name": "E4",
              "midi": 64,
              "time": 148.875,
              "velocity": 0.3937007874015748,
              "duration": 0.3734374999999943
            },
            {
              "name": "E4",
              "midi": 64,
              "time": 149.25,
              "velocity": 0.3937007874015748,
              "duration": 0.3734374999999943
            },
            {
              "name": "E4",
              "midi": 64,
              "time": 149.625,
              "velocity": 0.3937007874015748,
              "duration": 0.3734374999999943
            },
            {
              "name": "G4",
              "midi": 67,
              "time": 150,
              "velocity": 0.3937007874015748,
              "duration": 0.3734374999999943
            },
            {
              "name": "E4",
              "midi": 64,
              "time": 150.375,
              "velocity": 0.3937007874015748,
              "duration": 0.3734374999999943
            },
            {
              "name": "D4",
              "midi": 62,
              "time": 150.75,
              "velocity": 0.3937007874015748,
              "duration": 0.3734374999999943
            },
            {
              "name": "E4",
              "midi": 64,
              "time": 151.125,
              "velocity": 0.3937007874015748,
              "duration": 0.18593749999999432
            },
            {
              "name": "G4",
              "midi": 67,
              "time": 151.3125,
              "velocity": 0.3937007874015748,
              "duration": 0.3734374999999943
            },
            {
              "name": "A4",
              "midi": 69,
              "time": 152.625,
              "velocity": 0.3937007874015748,
              "duration": 0.3734374999999943
            },
            {
              "name": "B4",
              "midi": 71,
              "time": 153,
              "velocity": 0.3937007874015748,
              "duration": 0.3734374999999943
            },
            {
              "name": "A4",
              "midi": 69,
              "time": 153.375,
              "velocity": 0.3937007874015748,
              "duration": 0.3734374999999943
            },
            {
              "name": "G4",
              "midi": 67,
              "time": 153.75,
              "velocity": 0.3937007874015748,
              "duration": 0.3734374999999943
            },
            {
              "name": "B4",
              "midi": 71,
              "time": 154.125,
              "velocity": 0.3937007874015748,
              "duration": 0.7484374999999943
            },
            {
              "name": "D4",
              "midi": 62,
              "time": 154.875,
              "velocity": 0.3937007874015748,
              "duration": 0.3734374999999943
            },
            {
              "name": "E4",
              "midi": 64,
              "time": 155.25,
              "velocity": 0.3937007874015748,
              "duration": 0.3734374999999943
            },
            {
              "name": "D4",
              "midi": 62,
              "time": 155.625,
              "velocity": 0.3937007874015748,
              "duration": 0.3734374999999943
            },
            {
              "name": "G4",
              "midi": 67,
              "time": 156,
              "velocity": 0.3937007874015748,
              "duration": 0.18593749999999432
            },
            {
              "name": "D4",
              "midi": 62,
              "time": 156.1875,
              "velocity": 0.3937007874015748,
              "duration": 0.18593749999999432
            },
            {
              "name": "E4",
              "midi": 64,
              "time": 156.375,
              "velocity": 0.3937007874015748,
              "duration": 0.3734374999999943
            },
            {
              "name": "E4",
              "midi": 64,
              "time": 156.75,
              "velocity": 0.3937007874015748,
              "duration": 0.3734374999999943
            },
            {
              "name": "D4",
              "midi": 62,
              "time": 157.125,
              "velocity": 0.3937007874015748,
              "duration": 0.7484374999999943
            },
            {
              "name": "B4",
              "midi": 71,
              "time": 158.4375,
              "velocity": 0.3937007874015748,
              "duration": 0.18593749999999432
            },
            {
              "name": "B4",
              "midi": 71,
              "time": 158.625,
              "velocity": 0.3937007874015748,
              "duration": 0.18593749999999432
            },
            {
              "name": "B4",
              "midi": 71,
              "time": 159,
              "velocity": 0.3937007874015748,
              "duration": 0.3734374999999943
            },
            {
              "name": "B4",
              "midi": 71,
              "time": 159.375,
              "velocity": 0.3937007874015748,
              "duration": 0.3734374999999943
            },
            {
              "name": "B4",
              "midi": 71,
              "time": 159.75,
              "velocity": 0.3937007874015748,
              "duration": 0.3734374999999943
            },
            {
              "name": "B4",
              "midi": 71,
              "time": 160.125,
              "velocity": 0.3937007874015748,
              "duration": 0.7484374999999943
            },
            {
              "name": "B4",
              "midi": 71,
              "time": 160.875,
              "velocity": 0.3937007874015748,
              "duration": 0.3734374999999943
            },
            {
              "name": "B4",
              "midi": 71,
              "time": 161.25,
              "velocity": 0.3937007874015748,
              "duration": 0.3734374999999943
            },
            {
              "name": "B4",
              "midi": 71,
              "time": 161.625,
              "velocity": 0.3937007874015748,
              "duration": 0.3734374999999943
            },
            {
              "name": "D5",
              "midi": 74,
              "time": 162,
              "velocity": 0.3937007874015748,
              "duration": 0.3734374999999943
            },
            {
              "name": "D5",
              "midi": 74,
              "time": 162.375,
              "velocity": 0.3937007874015748,
              "duration": 0.3734374999999943
            },
            {
              "name": "E5",
              "midi": 76,
              "time": 162.75,
              "velocity": 0.3937007874015748,
              "duration": 0.3734374999999943
            },
            {
              "name": "A#4",
              "midi": 70,
              "time": 163.125,
              "velocity": 0.3937007874015748,
              "duration": 0.18593749999999432
            },
            {
              "name": "A4",
              "midi": 69,
              "time": 163.3125,
              "velocity": 0.3937007874015748,
              "duration": 0.3734374999999943
            },
            {
              "name": "E4",
              "midi": 64,
              "time": 164.4375,
              "velocity": 0.3937007874015748,
              "duration": 0.18593749999999432
            },
            {
              "name": "G4",
              "midi": 67,
              "time": 164.625,
              "velocity": 0.3937007874015748,
              "duration": 0.18593749999999432
            },
            {
              "name": "B4",
              "midi": 71,
              "time": 165,
              "velocity": 0.3937007874015748,
              "duration": 0.3734374999999943
            },
            {
              "name": "A4",
              "midi": 69,
              "time": 165.375,
              "velocity": 0.3937007874015748,
              "duration": 0.3734374999999943
            },
            {
              "name": "G4",
              "midi": 67,
              "time": 165.75,
              "velocity": 0.3937007874015748,
              "duration": 0.3734374999999943
            },
            {
              "name": "B4",
              "midi": 71,
              "time": 166.125,
              "velocity": 0.3937007874015748,
              "duration": 0.7484374999999943
            },
            {
              "name": "E4",
              "midi": 64,
              "time": 166.875,
              "velocity": 0.3937007874015748,
              "duration": 0.3734374999999943
            },
            {
              "name": "E4",
              "midi": 64,
              "time": 167.4375,
              "velocity": 0.3937007874015748,
              "duration": 0.18593749999999432
            },
            {
              "name": "E4",
              "midi": 64,
              "time": 167.625,
              "velocity": 0.3937007874015748,
              "duration": 0.18593749999999432
            },
            {
              "name": "G4",
              "midi": 67,
              "time": 168,
              "velocity": 0.3937007874015748,
              "duration": 0.3734374999999943
            },
            {
              "name": "D4",
              "midi": 62,
              "time": 168.375,
              "velocity": 0.3937007874015748,
              "duration": 0.18593749999999432
            },
            {
              "name": "E4",
              "midi": 64,
              "time": 168.5625,
              "velocity": 0.3937007874015748,
              "duration": 0.3734374999999943
            },
            {
              "name": "E4",
              "midi": 64,
              "time": 169.125,
              "velocity": 0.3937007874015748,
              "duration": 0.3734374999999943
            },
            {
              "name": "E4",
              "midi": 64,
              "time": 169.875,
              "velocity": 0.3937007874015748,
              "duration": 0.3734374999999943
            },
            {
              "name": "G4",
              "midi": 67,
              "time": 170.25,
              "velocity": 0.3937007874015748,
              "duration": 0.3734374999999943
            },
            {
              "name": "A4",
              "midi": 69,
              "time": 171,
              "velocity": 0.3937007874015748,
              "duration": 8.248437499999994
            },
            {
              "name": "A4",
              "midi": 69,
              "time": 180,
              "velocity": 0.3937007874015748,
              "duration": 0.7484374999999943
            },
            {
              "name": "A4",
              "midi": 69,
              "time": 180.75,
              "velocity": 0.3937007874015748,
              "duration": 0.5609374999999943
            },
            {
              "name": "A#4",
              "midi": 70,
              "time": 181.3125,
              "velocity": 0.3937007874015748,
              "duration": 0.18593749999999432
            },
            {
              "name": "A4",
              "midi": 69,
              "time": 181.5,
              "velocity": 0.3937007874015748,
              "duration": 0.3734374999999943
            },
            {
              "name": "A4",
              "midi": 69,
              "time": 181.875,
              "velocity": 0.3937007874015748,
              "duration": 0.3734374999999943
            },
            {
              "name": "A4",
              "midi": 69,
              "time": 182.25,
              "velocity": 0.3937007874015748,
              "duration": 0.3734374999999943
            },
            {
              "name": "A4",
              "midi": 69,
              "time": 182.625,
              "velocity": 0.3937007874015748,
              "duration": 0.3734374999999943
            },
            {
              "name": "G5",
              "midi": 79,
              "time": 185.25,
              "velocity": 0.3937007874015748,
              "duration": 0.7484374999999943
            },
            {
              "name": "B4",
              "midi": 71,
              "time": 188.25,
              "velocity": 0.3937007874015748,
              "duration": 0.7484374999999943
            },
            {
              "name": "E4",
              "midi": 64,
              "time": 189,
              "velocity": 0.3937007874015748,
              "duration": 1.4984374999999943
            },
            {
              "name": "B5",
              "midi": 83,
              "time": 195,
              "velocity": 0.3937007874015748,
              "duration": 0.3734374999999943
            },
            {
              "name": "B5",
              "midi": 83,
              "time": 195.375,
              "velocity": 0.3937007874015748,
              "duration": 0.3734374999999943
            },
            {
              "name": "A#5",
              "midi": 82,
              "time": 195.75,
              "velocity": 0.3937007874015748,
              "duration": 0.3734374999999943
            },
            {
              "name": "B5",
              "midi": 83,
              "time": 196.125,
              "velocity": 0.3937007874015748,
              "duration": 0.7484374999999943
            },
            {
              "name": "G5",
              "midi": 79,
              "time": 196.875,
              "velocity": 0.3937007874015748,
              "duration": 0.3734374999999943
            },
            {
              "name": "A5",
              "midi": 81,
              "time": 197.25,
              "velocity": 0.3937007874015748,
              "duration": 0.3734374999999943
            },
            {
              "name": "G5",
              "midi": 79,
              "time": 197.625,
              "velocity": 0.3937007874015748,
              "duration": 0.3734374999999943
            },
            {
              "name": "A5",
              "midi": 81,
              "time": 198,
              "velocity": 0.3937007874015748,
              "duration": 0.3734374999999943
            },
            {
              "name": "G5",
              "midi": 79,
              "time": 198.375,
              "velocity": 0.3937007874015748,
              "duration": 0.3734374999999943
            },
            {
              "name": "A5",
              "midi": 81,
              "time": 198.75,
              "velocity": 0.3937007874015748,
              "duration": 0.3734374999999943
            },
            {
              "name": "G5",
              "midi": 79,
              "time": 199.125,
              "velocity": 0.3937007874015748,
              "duration": 0.7484374999999943
            },
            {
              "name": "B5",
              "midi": 83,
              "time": 200.4375,
              "velocity": 0.3937007874015748,
              "duration": 0.5609374999999943
            },
            {
              "name": "B5",
              "midi": 83,
              "time": 201,
              "velocity": 0.3937007874015748,
              "duration": 0.3734374999999943
            },
            {
              "name": "B5",
              "midi": 83,
              "time": 201.375,
              "velocity": 0.3937007874015748,
              "duration": 0.3734374999999943
            },
            {
              "name": "D6",
              "midi": 86,
              "time": 201.75,
              "velocity": 0.3937007874015748,
              "duration": 0.3734374999999943
            },
            {
              "name": "A#5",
              "midi": 82,
              "time": 202.125,
              "velocity": 0.3937007874015748,
              "duration": 0.7484374999999943
            },
            {
              "name": "G5",
              "midi": 79,
              "time": 202.875,
              "velocity": 0.3937007874015748,
              "duration": 0.3734374999999943
            },
            {
              "name": "A5",
              "midi": 81,
              "time": 203.25,
              "velocity": 0.3937007874015748,
              "duration": 0.3734374999999943
            },
            {
              "name": "G5",
              "midi": 79,
              "time": 203.625,
              "velocity": 0.3937007874015748,
              "duration": 0.3734374999999943
            },
            {
              "name": "A5",
              "midi": 81,
              "time": 204,
              "velocity": 0.3937007874015748,
              "duration": 0.3734374999999943
            },
            {
              "name": "G5",
              "midi": 79,
              "time": 204.375,
              "velocity": 0.3937007874015748,
              "duration": 0.3734374999999943
            },
            {
              "name": "A5",
              "midi": 81,
              "time": 204.75,
              "velocity": 0.3937007874015748,
              "duration": 0.3734374999999943
            },
            {
              "name": "G5",
              "midi": 79,
              "time": 205.125,
              "velocity": 0.3937007874015748,
              "duration": 0.7484374999999943
            },
            {
              "name": "E5",
              "midi": 76,
              "time": 206.625,
              "velocity": 0.3937007874015748,
              "duration": 0.3734374999999943
            },
            {
              "name": "B5",
              "midi": 83,
              "time": 207,
              "velocity": 0.3937007874015748,
              "duration": 0.3734374999999943
            },
            {
              "name": "B5",
              "midi": 83,
              "time": 207.375,
              "velocity": 0.3937007874015748,
              "duration": 0.3734374999999943
            },
            {
              "name": "A#5",
              "midi": 82,
              "time": 207.75,
              "velocity": 0.3937007874015748,
              "duration": 0.3734374999999943
            },
            {
              "name": "B5",
              "midi": 83,
              "time": 208.125,
              "velocity": 0.3937007874015748,
              "duration": 0.7484374999999943
            },
            {
              "name": "G5",
              "midi": 79,
              "time": 208.875,
              "velocity": 0.3937007874015748,
              "duration": 0.3734374999999943
            },
            {
              "name": "A5",
              "midi": 81,
              "time": 209.25,
              "velocity": 0.3937007874015748,
              "duration": 0.3734374999999943
            },
            {
              "name": "G5",
              "midi": 79,
              "time": 209.625,
              "velocity": 0.3937007874015748,
              "duration": 0.3734374999999943
            },
            {
              "name": "A#5",
              "midi": 82,
              "time": 210,
              "velocity": 0.3937007874015748,
              "duration": 0.3734374999999943
            },
            {
              "name": "A5",
              "midi": 81,
              "time": 210.375,
              "velocity": 0.3937007874015748,
              "duration": 0.3734374999999943
            },
            {
              "name": "G5",
              "midi": 79,
              "time": 210.75,
              "velocity": 0.3937007874015748,
              "duration": 0.3734374999999943
            },
            {
              "name": "B5",
              "midi": 83,
              "time": 211.125,
              "velocity": 0.3937007874015748,
              "duration": 0.7484374999999943
            },
            {
              "name": "E5",
              "midi": 76,
              "time": 211.875,
              "velocity": 0.3937007874015748,
              "duration": 0.3734374999999943
            },
            {
              "name": "E5",
              "midi": 76,
              "time": 212.625,
              "velocity": 0.3937007874015748,
              "duration": 0.3734374999999943
            },
            {
              "name": "B5",
              "midi": 83,
              "time": 213,
              "velocity": 0.3937007874015748,
              "duration": 0.3734374999999943
            },
            {
              "name": "B5",
              "midi": 83,
              "time": 213.375,
              "velocity": 0.3937007874015748,
              "duration": 0.3734374999999943
            },
            {
              "name": "B5",
              "midi": 83,
              "time": 213.75,
              "velocity": 0.3937007874015748,
              "duration": 0.3734374999999943
            },
            {
              "name": "A#5",
              "midi": 82,
              "time": 214.125,
              "velocity": 0.3937007874015748,
              "duration": 0.3734374999999943
            },
            {
              "name": "A5",
              "midi": 81,
              "time": 214.5,
              "velocity": 0.3937007874015748,
              "duration": 0.3734374999999943
            },
            {
              "name": "G5",
              "midi": 79,
              "time": 214.875,
              "velocity": 0.3937007874015748,
              "duration": 0.3734374999999943
            },
            {
              "name": "A5",
              "midi": 81,
              "time": 215.25,
              "velocity": 0.3937007874015748,
              "duration": 0.3734374999999943
            },
            {
              "name": "G5",
              "midi": 79,
              "time": 215.625,
              "velocity": 0.3937007874015748,
              "duration": 0.3734374999999943
            },
            {
              "name": "A5",
              "midi": 81,
              "time": 216,
              "velocity": 0.3937007874015748,
              "duration": 0.3734374999999943
            },
            {
              "name": "G5",
              "midi": 79,
              "time": 216.375,
              "velocity": 0.3937007874015748,
              "duration": 0.18593749999999432
            },
            {
              "name": "A5",
              "midi": 81,
              "time": 216.5625,
              "velocity": 0.3937007874015748,
              "duration": 0.3734374999999943
            },
            {
              "name": "G5",
              "midi": 79,
              "time": 217.125,
              "velocity": 0.3937007874015748,
              "duration": 0.3734374999999943
            },
            {
              "name": "E5",
              "midi": 76,
              "time": 217.5,
              "velocity": 0.3937007874015748,
              "duration": 0.3734374999999943
            },
            {
              "name": "B5",
              "midi": 83,
              "time": 217.875,
              "velocity": 0.3937007874015748,
              "duration": 0.18593749999999432
            },
            {
              "name": "G5",
              "midi": 79,
              "time": 218.0625,
              "velocity": 0.3937007874015748,
              "duration": 0.3734374999999943
            },
            {
              "name": "A5",
              "midi": 81,
              "time": 218.4375,
              "velocity": 0.3937007874015748,
              "duration": 0.18593749999999432
            },
            {
              "name": "A5",
              "midi": 81,
              "time": 218.625,
              "velocity": 0.3937007874015748,
              "duration": 0.3734374999999943
            },
            {
              "name": "B5",
              "midi": 83,
              "time": 219,
              "velocity": 0.3937007874015748,
              "duration": 2.9984374999999943
            },
            {
              "name": "A#5",
              "midi": 82,
              "time": 222,
              "velocity": 0.3937007874015748,
              "duration": 0.7484374999999943
            },
            {
              "name": "A5",
              "midi": 81,
              "time": 222.75,
              "velocity": 0.3937007874015748,
              "duration": 0.7484374999999943
            },
            {
              "name": "A5",
              "midi": 81,
              "time": 223.5,
              "velocity": 0.3937007874015748,
              "duration": 0.3734374999999943
            },
            {
              "name": "G5",
              "midi": 79,
              "time": 223.875,
              "velocity": 0.3937007874015748,
              "duration": 0.3734374999999943
            },
            {
              "name": "A5",
              "midi": 81,
              "time": 224.25,
              "velocity": 0.3937007874015748,
              "duration": 0.3734374999999943
            },
            {
              "name": "G5",
              "midi": 79,
              "time": 224.625,
              "velocity": 0.3937007874015748,
              "duration": 0.3734374999999943
            },
            {
              "name": "B5",
              "midi": 83,
              "time": 225,
              "velocity": 0.3937007874015748,
              "duration": 2.9984374999999943
            },
            {
              "name": "D6",
              "midi": 86,
              "time": 228,
              "velocity": 0.3937007874015748,
              "duration": 0.7484374999999943
            },
            {
              "name": "A5",
              "midi": 81,
              "time": 228.75,
              "velocity": 0.3937007874015748,
              "duration": 0.7484374999999943
            },
            {
              "name": "A5",
              "midi": 81,
              "time": 229.5,
              "velocity": 0.3937007874015748,
              "duration": 0.3734374999999943
            },
            {
              "name": "G5",
              "midi": 79,
              "time": 229.875,
              "velocity": 0.3937007874015748,
              "duration": 0.3734374999999943
            },
            {
              "name": "A5",
              "midi": 81,
              "time": 230.25,
              "velocity": 0.3937007874015748,
              "duration": 0.3734374999999943
            },
            {
              "name": "G5",
              "midi": 79,
              "time": 230.625,
              "velocity": 0.3937007874015748,
              "duration": 0.3734374999999943
            },
            {
              "name": "B5",
              "midi": 83,
              "time": 231,
              "velocity": 0.3937007874015748,
              "duration": 2.9984374999999943
            },
            {
              "name": "A#5",
              "midi": 82,
              "time": 234,
              "velocity": 0.3937007874015748,
              "duration": 0.7484374999999943
            },
            {
              "name": "A5",
              "midi": 81,
              "time": 234.75,
              "velocity": 0.3937007874015748,
              "duration": 0.7484374999999943
            },
            {
              "name": "A5",
              "midi": 81,
              "time": 235.5,
              "velocity": 0.3937007874015748,
              "duration": 0.3734374999999943
            },
            {
              "name": "G5",
              "midi": 79,
              "time": 235.875,
              "velocity": 0.3937007874015748,
              "duration": 0.3734374999999943
            },
            {
              "name": "A5",
              "midi": 81,
              "time": 236.25,
              "velocity": 0.3937007874015748,
              "duration": 0.3734374999999943
            },
            {
              "name": "G5",
              "midi": 79,
              "time": 236.625,
              "velocity": 0.3937007874015748,
              "duration": 0.3734374999999943
            },
            {
              "name": "B5",
              "midi": 83,
              "time": 237,
              "velocity": 0.3937007874015748,
              "duration": 2.9984374999999943
            },
            {
              "name": "D6",
              "midi": 86,
              "time": 240,
              "velocity": 0.3937007874015748,
              "duration": 0.7484374999999943
            },
            {
              "name": "A5",
              "midi": 81,
              "time": 240.75,
              "velocity": 0.3937007874015748,
              "duration": 0.7484374999999943
            },
            {
              "name": "A5",
              "midi": 81,
              "time": 241.5,
              "velocity": 0.3937007874015748,
              "duration": 0.3734374999999943
            },
            {
              "name": "G5",
              "midi": 79,
              "time": 241.875,
              "velocity": 0.3937007874015748,
              "duration": 0.3734374999999943
            },
            {
              "name": "A5",
              "midi": 81,
              "time": 242.25,
              "velocity": 0.3937007874015748,
              "duration": 0.3734374999999943
            },
            {
              "name": "G5",
              "midi": 79,
              "time": 242.625,
              "velocity": 0.3937007874015748,
              "duration": 12.373437499999994
            },
            {
              "name": "B4",
              "midi": 71,
              "time": 267.75,
              "velocity": 0.3937007874015748,
              "duration": 0.37343750000002274
            },
            {
              "name": "D5",
              "midi": 74,
              "time": 268.125,
              "velocity": 0.3937007874015748,
              "duration": 0.7484375000000227
            },
            {
              "name": "E5",
              "midi": 76,
              "time": 268.875,
              "velocity": 0.3937007874015748,
              "duration": 0.7484375000000227
            },
            {
              "name": "A#4",
              "midi": 70,
              "time": 269.625,
              "velocity": 0.3937007874015748,
              "duration": 0.7484375000000227
            },
            {
              "name": "A4",
              "midi": 69,
              "time": 270.75,
              "velocity": 0.3937007874015748,
              "duration": 0.37343750000002274
            },
            {
              "name": "G4",
              "midi": 67,
              "time": 271.125,
              "velocity": 0.3937007874015748,
              "duration": 0.37343750000002274
            },
            {
              "name": "A4",
              "midi": 69,
              "time": 271.5,
              "velocity": 0.3937007874015748,
              "duration": 0.7484375000000227
            },
            {
              "name": "G4",
              "midi": 67,
              "time": 272.25,
              "velocity": 0.3937007874015748,
              "duration": 0.37343750000002274
            },
            {
              "name": "B4",
              "midi": 71,
              "time": 272.625,
              "velocity": 0.3937007874015748,
              "duration": 0.7484375000000227
            },
            {
              "name": "B4",
              "midi": 71,
              "time": 273.75,
              "velocity": 0.3937007874015748,
              "duration": 0.37343750000002274
            },
            {
              "name": "D5",
              "midi": 74,
              "time": 274.125,
              "velocity": 0.3937007874015748,
              "duration": 0.7484375000000227
            },
            {
              "name": "E5",
              "midi": 76,
              "time": 274.875,
              "velocity": 0.3937007874015748,
              "duration": 0.7484375000000227
            },
            {
              "name": "G5",
              "midi": 79,
              "time": 275.625,
              "velocity": 0.3937007874015748,
              "duration": 0.7484375000000227
            },
            {
              "name": "E5",
              "midi": 76,
              "time": 276.375,
              "velocity": 0.3937007874015748,
              "duration": 0.37343750000002274
            },
            {
              "name": "E5",
              "midi": 76,
              "time": 276.75,
              "velocity": 0.3937007874015748,
              "duration": 0.37343750000002274
            },
            {
              "name": "E5",
              "midi": 76,
              "time": 277.125,
              "velocity": 0.3937007874015748,
              "duration": 0.37343750000002274
            },
            {
              "name": "G5",
              "midi": 79,
              "time": 277.5,
              "velocity": 0.3937007874015748,
              "duration": 0.37343750000002274
            },
            {
              "name": "E5",
              "midi": 76,
              "time": 277.875,
              "velocity": 0.3937007874015748,
              "duration": 0.37343750000002274
            },
            {
              "name": "D5",
              "midi": 74,
              "time": 278.25,
              "velocity": 0.3937007874015748,
              "duration": 0.37343750000002274
            },
            {
              "name": "E5",
              "midi": 76,
              "time": 278.625,
              "velocity": 0.3937007874015748,
              "duration": 0.7484375000000227
            },
            {
              "name": "E5",
              "midi": 76,
              "time": 279.75,
              "velocity": 0.3937007874015748,
              "duration": 0.37343750000002274
            },
            {
              "name": "G5",
              "midi": 79,
              "time": 280.125,
              "velocity": 0.3937007874015748,
              "duration": 0.7484375000000227
            },
            {
              "name": "A5",
              "midi": 81,
              "time": 280.875,
              "velocity": 0.3937007874015748,
              "duration": 0.7484375000000227
            },
            {
              "name": "G5",
              "midi": 79,
              "time": 281.625,
              "velocity": 0.3937007874015748,
              "duration": 0.37343750000002274
            },
            {
              "name": "E5",
              "midi": 76,
              "time": 282.375,
              "velocity": 0.3937007874015748,
              "duration": 0.37343750000002274
            },
            {
              "name": "E5",
              "midi": 76,
              "time": 282.75,
              "velocity": 0.3937007874015748,
              "duration": 0.37343750000002274
            },
            {
              "name": "E5",
              "midi": 76,
              "time": 283.125,
              "velocity": 0.3937007874015748,
              "duration": 0.37343750000002274
            },
            {
              "name": "A#5",
              "midi": 82,
              "time": 283.5,
              "velocity": 0.3937007874015748,
              "duration": 0.37343750000002274
            },
            {
              "name": "A5",
              "midi": 81,
              "time": 283.875,
              "velocity": 0.3937007874015748,
              "duration": 0.7484375000000227
            },
            {
              "name": "G5",
              "midi": 79,
              "time": 284.625,
              "velocity": 0.3937007874015748,
              "duration": 0.18593750000002274
            },
            {
              "name": "A5",
              "midi": 81,
              "time": 284.8125,
              "velocity": 0.3937007874015748,
              "duration": 0.18593750000002274
            },
            {
              "name": "B5",
              "midi": 83,
              "time": 285.75,
              "velocity": 0.3937007874015748,
              "duration": 0.37343750000002274
            },
            {
              "name": "B5",
              "midi": 83,
              "time": 286.125,
              "velocity": 0.3937007874015748,
              "duration": 0.7484375000000227
            },
            {
              "name": "B5",
              "midi": 83,
              "time": 286.875,
              "velocity": 0.3937007874015748,
              "duration": 0.7484375000000227
            },
            {
              "name": "A#5",
              "midi": 82,
              "time": 287.625,
              "velocity": 0.3937007874015748,
              "duration": 0.37343750000002274
            },
            {
              "name": "A5",
              "midi": 81,
              "time": 288,
              "velocity": 0.3937007874015748,
              "duration": 0.37343750000002274
            },
            {
              "name": "A5",
              "midi": 81,
              "time": 288.375,
              "velocity": 0.3937007874015748,
              "duration": 0.37343750000002274
            },
            {
              "name": "G5",
              "midi": 79,
              "time": 288.75,
              "velocity": 0.3937007874015748,
              "duration": 0.37343750000002274
            },
            {
              "name": "A5",
              "midi": 81,
              "time": 289.125,
              "velocity": 0.3937007874015748,
              "duration": 0.7484375000000227
            },
            {
              "name": "A5",
              "midi": 81,
              "time": 289.875,
              "velocity": 0.3937007874015748,
              "duration": 0.37343750000002274
            },
            {
              "name": "G5",
              "midi": 79,
              "time": 290.25,
              "velocity": 0.3937007874015748,
              "duration": 0.37343750000002274
            },
            {
              "name": "B5",
              "midi": 83,
              "time": 290.625,
              "velocity": 0.3937007874015748,
              "duration": 3.3734375000000227
            },
            {
              "name": "A#5",
              "midi": 82,
              "time": 294,
              "velocity": 0.3937007874015748,
              "duration": 0.7484375000000227
            },
            {
              "name": "A5",
              "midi": 81,
              "time": 294.75,
              "velocity": 0.3937007874015748,
              "duration": 0.7484375000000227
            },
            {
              "name": "A5",
              "midi": 81,
              "time": 295.5,
              "velocity": 0.3937007874015748,
              "duration": 0.37343750000002274
            },
            {
              "name": "G5",
              "midi": 79,
              "time": 295.875,
              "velocity": 0.3937007874015748,
              "duration": 0.37343750000002274
            },
            {
              "name": "A5",
              "midi": 81,
              "time": 296.25,
              "velocity": 0.3937007874015748,
              "duration": 0.37343750000002274
            },
            {
              "name": "G5",
              "midi": 79,
              "time": 296.625,
              "velocity": 0.3937007874015748,
              "duration": 0.37343750000002274
            },
            {
              "name": "B5",
              "midi": 83,
              "time": 297,
              "velocity": 0.3937007874015748,
              "duration": 2.9984375000000227
            },
            {
              "name": "D6",
              "midi": 86,
              "time": 300,
              "velocity": 0.3937007874015748,
              "duration": 0.7484375000000227
            },
            {
              "name": "A5",
              "midi": 81,
              "time": 300.75,
              "velocity": 0.3937007874015748,
              "duration": 0.7484375000000227
            },
            {
              "name": "A5",
              "midi": 81,
              "time": 301.5,
              "velocity": 0.3937007874015748,
              "duration": 0.37343750000002274
            },
            {
              "name": "G5",
              "midi": 79,
              "time": 301.875,
              "velocity": 0.3937007874015748,
              "duration": 0.37343750000002274
            },
            {
              "name": "A5",
              "midi": 81,
              "time": 302.25,
              "velocity": 0.3937007874015748,
              "duration": 0.37343750000002274
            },
            {
              "name": "G5",
              "midi": 79,
              "time": 302.625,
              "velocity": 0.3937007874015748,
              "duration": 0.37343750000002274
            },
            {
              "name": "B5",
              "midi": 83,
              "time": 303,
              "velocity": 0.3937007874015748,
              "duration": 2.9984375000000227
            },
            {
              "name": "A#5",
              "midi": 82,
              "time": 306,
              "velocity": 0.3937007874015748,
              "duration": 0.7484375000000227
            },
            {
              "name": "A5",
              "midi": 81,
              "time": 306.75,
              "velocity": 0.3937007874015748,
              "duration": 0.7484375000000227
            },
            {
              "name": "A5",
              "midi": 81,
              "time": 307.5,
              "velocity": 0.3937007874015748,
              "duration": 0.37343750000002274
            },
            {
              "name": "G5",
              "midi": 79,
              "time": 307.875,
              "velocity": 0.3937007874015748,
              "duration": 0.37343750000002274
            },
            {
              "name": "A5",
              "midi": 81,
              "time": 308.25,
              "velocity": 0.3937007874015748,
              "duration": 0.37343750000002274
            },
            {
              "name": "G5",
              "midi": 79,
              "time": 308.625,
              "velocity": 0.3937007874015748,
              "duration": 0.37343750000002274
            },
            {
              "name": "B5",
              "midi": 83,
              "time": 309,
              "velocity": 0.3937007874015748,
              "duration": 2.9984375000000227
            },
            {
              "name": "D6",
              "midi": 86,
              "time": 312,
              "velocity": 0.3937007874015748,
              "duration": 0.7484375000000227
            },
            {
              "name": "A5",
              "midi": 81,
              "time": 312.75,
              "velocity": 0.3937007874015748,
              "duration": 0.7484375000000227
            },
            {
              "name": "A5",
              "midi": 81,
              "time": 313.5,
              "velocity": 0.3937007874015748,
              "duration": 0.37343750000002274
            },
            {
              "name": "G5",
              "midi": 79,
              "time": 313.875,
              "velocity": 0.3937007874015748,
              "duration": 0.37343750000002274
            },
            {
              "name": "A5",
              "midi": 81,
              "time": 314.25,
              "velocity": 0.3937007874015748,
              "duration": 0.37343750000002274
            },
            {
              "name": "G5",
              "midi": 79,
              "time": 314.625,
              "velocity": 0.3937007874015748,
              "duration": 0.37343750000002274
            },
            {
              "name": "B5",
              "midi": 83,
              "time": 315,
              "velocity": 0.3937007874015748,
              "duration": 2.9984375000000227
            },
            {
              "name": "A#5",
              "midi": 82,
              "time": 318,
              "velocity": 0.3937007874015748,
              "duration": 0.7484375000000227
            },
            {
              "name": "A5",
              "midi": 81,
              "time": 318.75,
              "velocity": 0.3937007874015748,
              "duration": 0.7484375000000227
            },
            {
              "name": "A5",
              "midi": 81,
              "time": 319.5,
              "velocity": 0.3937007874015748,
              "duration": 0.37343750000002274
            },
            {
              "name": "G5",
              "midi": 79,
              "time": 319.875,
              "velocity": 0.3937007874015748,
              "duration": 0.37343750000002274
            },
            {
              "name": "A5",
              "midi": 81,
              "time": 320.25,
              "velocity": 0.3937007874015748,
              "duration": 0.37343750000002274
            },
            {
              "name": "G5",
              "midi": 79,
              "time": 320.625,
              "velocity": 0.3937007874015748,
              "duration": 0.37343750000002274
            },
            {
              "name": "B5",
              "midi": 83,
              "time": 321,
              "velocity": 0.3937007874015748,
              "duration": 2.9984375000000227
            },
            {
              "name": "D6",
              "midi": 86,
              "time": 324,
              "velocity": 0.3937007874015748,
              "duration": 0.7484375000000227
            },
            {
              "name": "A5",
              "midi": 81,
              "time": 324.75,
              "velocity": 0.3937007874015748,
              "duration": 0.7484375000000227
            },
            {
              "name": "A5",
              "midi": 81,
              "time": 325.5,
              "velocity": 0.3937007874015748,
              "duration": 0.37343750000002274
            },
            {
              "name": "G5",
              "midi": 79,
              "time": 325.875,
              "velocity": 0.3937007874015748,
              "duration": 0.37343750000002274
            },
            {
              "name": "A5",
              "midi": 81,
              "time": 326.25,
              "velocity": 0.3937007874015748,
              "duration": 0.37343750000002274
            },
            {
              "name": "G5",
              "midi": 79,
              "time": 326.625,
              "velocity": 0.3937007874015748,
              "duration": 0.37343750000002274
            },
            {
              "name": "B5",
              "midi": 83,
              "time": 327,
              "velocity": 0.3937007874015748,
              "duration": 2.9984375000000227
            },
            {
              "name": "A#5",
              "midi": 82,
              "time": 330,
              "velocity": 0.3937007874015748,
              "duration": 0.7484375000000227
            },
            {
              "name": "A5",
              "midi": 81,
              "time": 330.75,
              "velocity": 0.3937007874015748,
              "duration": 0.7484375000000227
            },
            {
              "name": "A5",
              "midi": 81,
              "time": 331.5,
              "velocity": 0.3937007874015748,
              "duration": 0.37343750000002274
            },
            {
              "name": "G5",
              "midi": 79,
              "time": 331.875,
              "velocity": 0.3937007874015748,
              "duration": 0.37343750000002274
            },
            {
              "name": "A5",
              "midi": 81,
              "time": 332.25,
              "velocity": 0.3937007874015748,
              "duration": 0.37343750000002274
            },
            {
              "name": "G5",
              "midi": 79,
              "time": 332.625,
              "velocity": 0.3937007874015748,
              "duration": 0.37343750000002274
            },
            {
              "name": "B5",
              "midi": 83,
              "time": 333,
              "velocity": 0.3937007874015748,
              "duration": 2.9984375000000227
            },
            {
              "name": "D6",
              "midi": 86,
              "time": 336,
              "velocity": 0.3937007874015748,
              "duration": 0.7484375000000227
            },
            {
              "name": "A5",
              "midi": 81,
              "time": 336.75,
              "velocity": 0.3937007874015748,
              "duration": 0.7484375000000227
            },
            {
              "name": "A5",
              "midi": 81,
              "time": 337.5,
              "velocity": 0.3937007874015748,
              "duration": 0.37343750000002274
            },
            {
              "name": "G5",
              "midi": 79,
              "time": 337.875,
              "velocity": 0.3937007874015748,
              "duration": 0.37343750000002274
            },
            {
              "name": "A5",
              "midi": 81,
              "time": 338.25,
              "velocity": 0.3937007874015748,
              "duration": 0.37343750000002274
            },
            {
              "name": "G5",
              "midi": 79,
              "time": 338.625,
              "velocity": 0.3937007874015748,
              "duration": 0.37343750000002274
            },
            {
              "name": "B5",
              "midi": 83,
              "time": 339,
              "velocity": 0.3937007874015748,
              "duration": 2.9984375000000227
            },
            {
              "name": "A#5",
              "midi": 82,
              "time": 342,
              "velocity": 0.3937007874015748,
              "duration": 0.7484375000000227
            },
            {
              "name": "A5",
              "midi": 81,
              "time": 342.75,
              "velocity": 0.3937007874015748,
              "duration": 0.7484375000000227
            },
            {
              "name": "A5",
              "midi": 81,
              "time": 343.5,
              "velocity": 0.3937007874015748,
              "duration": 0.37343750000002274
            },
            {
              "name": "G5",
              "midi": 79,
              "time": 343.875,
              "velocity": 0.3937007874015748,
              "duration": 0.37343750000002274
            },
            {
              "name": "A5",
              "midi": 81,
              "time": 344.25,
              "velocity": 0.3937007874015748,
              "duration": 0.37343750000002274
            },
            {
              "name": "G5",
              "midi": 79,
              "time": 344.625,
              "velocity": 0.3937007874015748,
              "duration": 0.37343750000002274
            },
            {
              "name": "B5",
              "midi": 83,
              "time": 345,
              "velocity": 0.3937007874015748,
              "duration": 2.9984375000000227
            },
            {
              "name": "D6",
              "midi": 86,
              "time": 348,
              "velocity": 0.3937007874015748,
              "duration": 0.7484375000000227
            },
            {
              "name": "A5",
              "midi": 81,
              "time": 348.75,
              "velocity": 0.3937007874015748,
              "duration": 0.7484375000000227
            },
            {
              "name": "A5",
              "midi": 81,
              "time": 349.5,
              "velocity": 0.3937007874015748,
              "duration": 0.37343750000002274
            },
            {
              "name": "G5",
              "midi": 79,
              "time": 349.875,
              "velocity": 0.3937007874015748,
              "duration": 0.37343750000002274
            },
            {
              "name": "A5",
              "midi": 81,
              "time": 350.25,
              "velocity": 0.3937007874015748,
              "duration": 0.37343750000002274
            },
            {
              "name": "G5",
              "midi": 79,
              "time": 350.625,
              "velocity": 0.3937007874015748,
              "duration": 0.37343750000002274
            },
            {
              "name": "B5",
              "midi": 83,
              "time": 351,
              "velocity": 0.3937007874015748,
              "duration": 2.9984375000000227
            },
            {
              "name": "A#5",
              "midi": 82,
              "time": 354,
              "velocity": 0.3937007874015748,
              "duration": 0.7484375000000227
            },
            {
              "name": "A5",
              "midi": 81,
              "time": 354.75,
              "velocity": 0.3937007874015748,
              "duration": 0.7484375000000227
            },
            {
              "name": "A5",
              "midi": 81,
              "time": 355.5,
              "velocity": 0.3937007874015748,
              "duration": 0.37343750000002274
            },
            {
              "name": "G5",
              "midi": 79,
              "time": 355.875,
              "velocity": 0.3937007874015748,
              "duration": 0.37343750000002274
            },
            {
              "name": "A5",
              "midi": 81,
              "time": 356.25,
              "velocity": 0.3937007874015748,
              "duration": 0.37343750000002274
            },
            {
              "name": "G5",
              "midi": 79,
              "time": 356.625,
              "velocity": 0.3937007874015748,
              "duration": 0.37343750000002274
            },
            {
              "name": "B5",
              "midi": 83,
              "time": 357,
              "velocity": 0.3937007874015748,
              "duration": 2.9984375000000227
            },
            {
              "name": "D6",
              "midi": 86,
              "time": 360,
              "velocity": 0.3937007874015748,
              "duration": 0.7484375000000227
            },
            {
              "name": "A5",
              "midi": 81,
              "time": 360.75,
              "velocity": 0.3937007874015748,
              "duration": 0.7484375000000227
            },
            {
              "name": "A5",
              "midi": 81,
              "time": 361.5,
              "velocity": 0.3937007874015748,
              "duration": 0.37343750000002274
            },
            {
              "name": "G5",
              "midi": 79,
              "time": 361.875,
              "velocity": 0.3937007874015748,
              "duration": 0.37343750000002274
            },
            {
              "name": "A5",
              "midi": 81,
              "time": 362.25,
              "velocity": 0.3937007874015748,
              "duration": 0.37343750000002274
            },
            {
              "name": "G5",
              "midi": 79,
              "time": 362.625,
              "velocity": 0.3937007874015748,
              "duration": 0.37343750000002274
            },
            {
              "name": "B5",
              "midi": 83,
              "time": 363,
              "velocity": 0.3937007874015748,
              "duration": 2.9984375000000227
            },
            {
              "name": "A#5",
              "midi": 82,
              "time": 366,
              "velocity": 0.3937007874015748,
              "duration": 0.7484375000000227
            },
            {
              "name": "A5",
              "midi": 81,
              "time": 366.75,
              "velocity": 0.3937007874015748,
              "duration": 0.7484375000000227
            },
            {
              "name": "A5",
              "midi": 81,
              "time": 367.5,
              "velocity": 0.3937007874015748,
              "duration": 0.37343750000002274
            },
            {
              "name": "G5",
              "midi": 79,
              "time": 367.875,
              "velocity": 0.3937007874015748,
              "duration": 0.37343750000002274
            },
            {
              "name": "A5",
              "midi": 81,
              "time": 368.25,
              "velocity": 0.3937007874015748,
              "duration": 0.37343750000002274
            },
            {
              "name": "G5",
              "midi": 79,
              "time": 368.625,
              "velocity": 0.3937007874015748,
              "duration": 0.37343750000002274
            },
            {
              "name": "B5",
              "midi": 83,
              "time": 369,
              "velocity": 0.3937007874015748,
              "duration": 2.9984375000000227
            },
            {
              "name": "D6",
              "midi": 86,
              "time": 372,
              "velocity": 0.3937007874015748,
              "duration": 0.7484375000000227
            },
            {
              "name": "A5",
              "midi": 81,
              "time": 372.75,
              "velocity": 0.3937007874015748,
              "duration": 0.7484375000000227
            },
            {
              "name": "A5",
              "midi": 81,
              "time": 373.5,
              "velocity": 0.3937007874015748,
              "duration": 0.37343750000002274
            },
            {
              "name": "G5",
              "midi": 79,
              "time": 373.875,
              "velocity": 0.3937007874015748,
              "duration": 0.37343750000002274
            },
            {
              "name": "A5",
              "midi": 81,
              "time": 374.25,
              "velocity": 0.3937007874015748,
              "duration": 0.37343750000002274
            },
            {
              "name": "G5",
              "midi": 79,
              "time": 374.625,
              "velocity": 0.3937007874015748,
              "duration": 0.37343750000002274
            },
            {
              "name": "B5",
              "midi": 83,
              "time": 375,
              "velocity": 0.3937007874015748,
              "duration": 2.9984375000000227
            },
            {
              "name": "A#5",
              "midi": 82,
              "time": 378,
              "velocity": 0.3937007874015748,
              "duration": 0.7484375000000227
            },
            {
              "name": "A5",
              "midi": 81,
              "time": 378.75,
              "velocity": 0.3937007874015748,
              "duration": 0.7484375000000227
            },
            {
              "name": "A5",
              "midi": 81,
              "time": 379.5,
              "velocity": 0.3937007874015748,
              "duration": 0.37343750000002274
            },
            {
              "name": "G5",
              "midi": 79,
              "time": 379.875,
              "velocity": 0.3937007874015748,
              "duration": 0.37343750000002274
            },
            {
              "name": "A5",
              "midi": 81,
              "time": 380.25,
              "velocity": 0.3937007874015748,
              "duration": 0.37343750000002274
            },
            {
              "name": "G5",
              "midi": 79,
              "time": 380.625,
              "velocity": 0.3937007874015748,
              "duration": 0.37343750000002274
            },
            {
              "name": "B5",
              "midi": 83,
              "time": 381,
              "velocity": 0.3937007874015748,
              "duration": 2.9984375000000227
            },
            {
              "name": "D6",
              "midi": 86,
              "time": 384,
              "velocity": 0.3937007874015748,
              "duration": 0.7484375000000227
            },
            {
              "name": "A5",
              "midi": 81,
              "time": 384.75,
              "velocity": 0.3937007874015748,
              "duration": 0.7484375000000227
            },
            {
              "name": "A5",
              "midi": 81,
              "time": 385.5,
              "velocity": 0.3937007874015748,
              "duration": 0.37343750000002274
            },
            {
              "name": "G5",
              "midi": 79,
              "time": 385.875,
              "velocity": 0.3937007874015748,
              "duration": 0.37343750000002274
            },
            {
              "name": "A5",
              "midi": 81,
              "time": 386.25,
              "velocity": 0.3937007874015748,
              "duration": 0.37343750000002274
            },
            {
              "name": "G5",
              "midi": 79,
              "time": 386.625,
              "velocity": 0.3937007874015748,
              "duration": 0.37343750000002274
            },
            {
              "name": "B5",
              "midi": 83,
              "time": 387,
              "velocity": 0.3937007874015748,
              "duration": 2.9984375000000227
            },
            {
              "name": "A#5",
              "midi": 82,
              "time": 390,
              "velocity": 0.3937007874015748,
              "duration": 0.7484375000000227
            },
            {
              "name": "A5",
              "midi": 81,
              "time": 390.75,
              "velocity": 0.3937007874015748,
              "duration": 0.7484375000000227
            },
            {
              "name": "A5",
              "midi": 81,
              "time": 391.5,
              "velocity": 0.3937007874015748,
              "duration": 0.37343750000002274
            },
            {
              "name": "G5",
              "midi": 79,
              "time": 391.875,
              "velocity": 0.3937007874015748,
              "duration": 0.37343750000002274
            },
            {
              "name": "A5",
              "midi": 81,
              "time": 392.25,
              "velocity": 0.3937007874015748,
              "duration": 0.37343750000002274
            },
            {
              "name": "G5",
              "midi": 79,
              "time": 392.625,
              "velocity": 0.3937007874015748,
              "duration": 0.37343750000002274
            },
            {
              "name": "B5",
              "midi": 83,
              "time": 393,
              "velocity": 0.3937007874015748,
              "duration": 2.9984375000000227
            },
            {
              "name": "D6",
              "midi": 86,
              "time": 396,
              "velocity": 0.3937007874015748,
              "duration": 0.7484375000000227
            },
            {
              "name": "A5",
              "midi": 81,
              "time": 396.75,
              "velocity": 0.3937007874015748,
              "duration": 0.7484375000000227
            },
            {
              "name": "A5",
              "midi": 81,
              "time": 397.5,
              "velocity": 0.3937007874015748,
              "duration": 0.37343750000002274
            },
            {
              "name": "G5",
              "midi": 79,
              "time": 397.875,
              "velocity": 0.3937007874015748,
              "duration": 0.37343750000002274
            },
            {
              "name": "A5",
              "midi": 81,
              "time": 398.25,
              "velocity": 0.3937007874015748,
              "duration": 0.37343750000002274
            },
            {
              "name": "G5",
              "midi": 79,
              "time": 398.625,
              "velocity": 0.3937007874015748,
              "duration": 0.37343750000002274
            },
            {
              "name": "B5",
              "midi": 83,
              "time": 399,
              "velocity": 0.3937007874015748,
              "duration": 2.9984375000000227
            },
            {
              "name": "A#5",
              "midi": 82,
              "time": 402,
              "velocity": 0.3937007874015748,
              "duration": 0.7484375000000227
            },
            {
              "name": "A5",
              "midi": 81,
              "time": 402.75,
              "velocity": 0.3937007874015748,
              "duration": 0.7484375000000227
            },
            {
              "name": "A5",
              "midi": 81,
              "time": 403.5,
              "velocity": 0.3937007874015748,
              "duration": 0.37343750000002274
            },
            {
              "name": "G5",
              "midi": 79,
              "time": 403.875,
              "velocity": 0.3937007874015748,
              "duration": 0.37343750000002274
            },
            {
              "name": "A5",
              "midi": 81,
              "time": 404.25,
              "velocity": 0.3937007874015748,
              "duration": 0.37343750000002274
            },
            {
              "name": "G5",
              "midi": 79,
              "time": 404.625,
              "velocity": 0.3937007874015748,
              "duration": 0.37343750000002274
            }
          ],
          "controlChanges": {
            "7": [
              {
                "number": 7,
                "time": 0,
                "value": 0.7874015748031497
              }
            ],
            "10": [
              {
                "number": 10,
                "time": 0,
                "value": 0.5039370078740157
              }
            ],
            "91": [
              {
                "number": 91,
                "time": 0,
                "value": 0
              }
            ],
            "93": [
              {
                "number": 93,
                "time": 0,
                "value": 0
              }
            ],
            "121": [
              {
                "number": 121,
                "time": 0,
                "value": 0
              }
            ]
          },
          "id": 0,
          "instrumentNumber": 80,
          "instrument": "lead 1 (square)",
          "instrumentFamily": "synth lead",
          "channelNumber": 0,
          "isPercussion": false
        }
      ]
    }
  } exports.spaceLord = spaceLord

